<svg xmlns="http://www.w3.org/2000/svg" viewBox="0 0 1715.59 310.85"><defs><style>.cls-1{fill:#2b2c2c;}.cls-1,.cls-2{stroke:#1b1b1b;stroke-miterlimit:10;stroke-width:0.75px;}.cls-2{fill:#e12e13;}</style></defs><g id="Calque_2" data-name="Calque 2"><path class="cls-1" d="M514.87,155.64,452.08,290.3A148.58,148.58,0,0,1,380.22,92.85C405,39.75,456.28,7.06,514.87,7.06Z"/><path class="cls-1" d="M514.87,155.64l115.47-93.5a148.57,148.57,0,0,1-22,209c-45.54,36.88-103.2,44-156.3,19.2Z"/><path class="cls-1" d="M514.87,155.64,558.31,13.55c29.82,9.12,52.41,24.35,72,48.59Z"/><path class="cls-2" d="M514.87,155.64V7.06a140.34,140.34,0,0,1,43.44,6.49Z"/><path class="cls-1" d="M860.2,155.64,797.41,290.3A148.58,148.58,0,0,1,725.54,92.85C750.3,39.75,801.61,7.06,860.2,7.06Z"/><path class="cls-1" d="M860.2,155.64l115.47-93.5a148.58,148.58,0,0,1-22,209C908.17,308,850.51,315.06,797.41,290.3Z"/><path class="cls-2" d="M860.2,155.64,903.64,13.55c29.82,9.12,52.4,24.35,72,48.59Z"/><path class="cls-1" d="M860.2,155.64V7.06a140.64,140.64,0,0,1,43.44,6.49Z"/><path class="cls-1" d="M1202.52,156.55l-62.79,134.66a148.58,148.58,0,0,1-71.87-197.45C1092.62,40.66,1143.93,8,1202.52,8Z"/><path class="cls-2" d="M1202.52,156.55,1318,63.05a148.58,148.58,0,0,1-22,209c-45.53,36.87-103.19,44-156.29,19.19Z"/><path class="cls-1" d="M1202.52,156.55,1246,14.47c29.82,9.12,52.4,24.35,72,48.58Z"/><path class="cls-1" d="M1202.52,156.55V8A140.34,140.34,0,0,1,1246,14.47Z"/><path class="cls-2" d="M1544,156.51l-62.8,134.66a148.58,148.58,0,0,1-71.86-197.45c24.76-53.1,76.07-85.79,134.66-85.79Z"/><path class="cls-1" d="M1544,156.51,1659.43,63a148.58,148.58,0,0,1-22,209c-45.53,36.87-103.2,43.95-156.3,19.19Z"/><path class="cls-1" d="M1544,156.51l43.44-142.08c29.81,9.11,52.4,24.35,72,48.58Z"/><path class="cls-1" d="M1544,156.51V7.93a140.35,140.35,0,0,1,43.44,6.5Z"/><path class="cls-1" d="M171.28,155.28,108.49,289.94A148.58,148.58,0,0,1,36.63,92.49C61.39,39.39,112.7,6.7,171.28,6.7Z"/><path class="cls-1" d="M171.28,155.28l115.47-93.5a148.57,148.57,0,0,1-22,209c-45.53,36.88-103.2,44-156.3,19.2Z"/><path class="cls-1" d="M171.28,155.28,214.72,13.19c29.82,9.12,52.41,24.35,72,48.59Z"/><path class="cls-1" d="M171.28,155.28V6.7a140.25,140.25,0,0,1,43.44,6.49Z"/></g></svg>