<svg id="Calque_1" data-name="Calque 1" xmlns="http://www.w3.org/2000/svg" viewBox="0 0 382.29 616.35"><defs><style>.cls-1{fill:none;stroke:#2e2d2c;stroke-miterlimit:10;opacity:0.3;}</style></defs><path class="cls-1" d="M380.82,615.85c-157.27,0-284.76-127.49-284.76-284.76S223.55,46.33,380.82,46.33"/><path class="cls-1" d="M58.17,532.53A380.53,380.53,0,0,1,78.64,100.12"/><line class="cls-1" x1="381.79" x2="381.79" y2="15.59"/><line class="cls-1" x1="360.98" y1="0.65" x2="361.96" y2="16.22"/><line class="cls-1" x1="340.25" y1="2.61" x2="342.21" y2="18.08"/><line class="cls-1" x1="319.69" y1="5.87" x2="322.61" y2="21.19"/><line class="cls-1" x1="299.37" y1="10.41" x2="303.24" y2="25.52"/><line class="cls-1" x1="279.37" y1="16.22" x2="284.19" y2="31.05"/><line class="cls-1" x1="259.78" y1="23.28" x2="265.52" y2="37.77"/><line class="cls-1" x1="240.67" y1="31.55" x2="247.31" y2="45.66"/><line class="cls-1" x1="222.12" y1="41" x2="229.63" y2="54.66"/><line class="cls-1" x1="204.19" y1="51.6" x2="212.55" y2="64.76"/><line class="cls-1" x1="186.97" y1="63.3" x2="196.14" y2="75.92"/><line class="cls-1" x1="170.52" y1="76.06" x2="180.46" y2="88.08"/><line class="cls-1" x1="154.9" y1="89.83" x2="165.57" y2="101.2"/><line class="cls-1" x1="140.18" y1="104.56" x2="151.54" y2="115.23"/><line class="cls-1" x1="126.41" y1="120.18" x2="138.42" y2="130.12"/><line class="cls-1" x1="113.64" y1="136.63" x2="126.26" y2="145.8"/><line class="cls-1" x1="101.94" y1="153.85" x2="115.11" y2="162.21"/><line class="cls-1" x1="91.34" y1="171.77" x2="105.01" y2="179.29"/><line class="cls-1" x1="81.89" y1="190.33" x2="96" y2="196.97"/><line class="cls-1" x1="73.62" y1="209.44" x2="88.12" y2="215.18"/><line class="cls-1" x1="66.56" y1="229.03" x2="81.4" y2="233.85"/><line class="cls-1" x1="60.75" y1="249.02" x2="75.86" y2="252.9"/><line class="cls-1" x1="56.21" y1="269.34" x2="71.53" y2="272.27"/><line class="cls-1" x1="52.96" y1="289.91" x2="68.43" y2="291.86"/><line class="cls-1" x1="51" y1="310.64" x2="66.56" y2="311.62"/></svg>