<svg id="Calque_1" data-name="Calque 1" xmlns="http://www.w3.org/2000/svg" viewBox="0 0 382.29 616.35"><defs><style>.cls-1{fill:none;stroke:#2e2d2c;stroke-miterlimit:10;opacity:0.3;}</style></defs><path class="cls-1" d="M1.48,615.85c157.27,0,284.76-127.49,284.76-284.76S158.75,46.33,1.48,46.33"/><path class="cls-1" d="M324.13,532.53a378.6,378.6,0,0,0,57.66-201.44,378.71,378.71,0,0,0-78.13-231"/><line class="cls-1" x1="0.5" x2="0.5" y2="15.59"/><line class="cls-1" x1="21.31" y1="0.65" x2="20.33" y2="16.22"/><line class="cls-1" x1="42.04" y1="2.61" x2="40.09" y2="18.08"/><line class="cls-1" x1="62.61" y1="5.87" x2="59.69" y2="21.19"/><line class="cls-1" x1="82.93" y1="10.41" x2="79.05" y2="25.52"/><line class="cls-1" x1="102.92" y1="16.22" x2="98.11" y2="31.05"/><line class="cls-1" x1="122.52" y1="23.28" x2="116.78" y2="37.77"/><line class="cls-1" x1="141.63" y1="31.55" x2="134.99" y2="45.66"/><line class="cls-1" x1="160.18" y1="41" x2="152.67" y2="54.66"/><line class="cls-1" x1="178.1" y1="51.6" x2="169.75" y2="64.76"/><line class="cls-1" x1="195.32" y1="63.3" x2="186.16" y2="75.92"/><line class="cls-1" x1="211.78" y1="76.06" x2="201.84" y2="88.08"/><line class="cls-1" x1="227.4" y1="89.83" x2="216.72" y2="101.2"/><line class="cls-1" x1="242.12" y1="104.56" x2="230.75" y2="115.23"/><line class="cls-1" x1="255.89" y1="120.18" x2="243.87" y2="130.12"/><line class="cls-1" x1="268.65" y1="136.63" x2="256.04" y2="145.8"/><line class="cls-1" x1="280.35" y1="153.85" x2="267.19" y2="162.21"/><line class="cls-1" x1="290.95" y1="171.77" x2="277.29" y2="179.29"/><line class="cls-1" x1="300.41" y1="190.33" x2="286.3" y2="196.97"/><line class="cls-1" x1="308.68" y1="209.44" x2="294.18" y2="215.18"/><line class="cls-1" x1="315.73" y1="229.03" x2="300.9" y2="233.85"/><line class="cls-1" x1="321.54" y1="249.02" x2="306.44" y2="252.9"/><line class="cls-1" x1="326.08" y1="269.34" x2="310.76" y2="272.27"/><line class="cls-1" x1="329.34" y1="289.91" x2="313.87" y2="291.86"/><line class="cls-1" x1="331.3" y1="310.64" x2="315.74" y2="311.62"/></svg>