<?xml version="1.0" encoding="utf-8"?>
<!-- Generator: Adobe Illustrator 23.0.6, SVG Export Plug-In . SVG Version: 6.00 Build 0)  -->
<svg version="1.1" id="Calque_1" xmlns="http://www.w3.org/2000/svg" xmlns:xlink="http://www.w3.org/1999/xlink" x="0px" y="0px"
	 viewBox="0 0 2000 2000" style="enable-background:new 0 0 2000 2000;" xml:space="preserve">
<style type="text/css">
	.st0{fill:#FFFFFF;}
</style>
<g>
	<path class="st0" d="M912.7,726.4c61.8-9.4,123.4-9.2,185.1,0c0.5-1,0.9-1.8,1.3-2.7c5.5-12.6,11.4-25,18.1-37.1
		c2.2-4,2.2-4,6.8-3.2c19.3,3.4,38.4,7.7,57.3,12.8c35.4,9.5,69.9,22,103.3,37.2c1.3,0.6,2.4,1.4,3.3,2.7
		c29.1,43,53.9,88.3,73.5,136.4c18.2,44.7,31.4,90.8,39.6,138.3c4.6,27.2,7.5,54.7,8.8,82.3c1.1,23.2,1,46.4-0.3,69.6
		c-0.6,10.7-1.6,21.4-2.3,32.1c-0.1,2-0.9,3.4-2.6,4.6c-53.4,39-111,70-173.4,92c-8.8,3.1-17.7,5.9-26.6,8.9c-2.8,0.9-3.3,0.7-5-1.7
		c-14.8-20.7-28.1-42.2-39.8-64.7c-0.3-0.5-0.5-1-0.7-1.5c-0.6-1.5-0.1-2.6,1.3-3.4c0.6-0.3,1.3-0.6,2-0.8
		c20.7-7.9,40.5-17.4,59.8-28.4c3.5-2,3.6-4.1,0.4-6.4c-3.5-2.4-6.8-5.1-10-7.8c-1.7-1.4-3.2-1.5-5.2-0.6
		c-21.7,10-44,18.4-66.8,25.2c-24.6,7.3-49.6,12.5-75,15.8c-28.8,3.7-57.7,4.7-86.7,3.1c-20.2-1.1-40.3-3.6-60.2-7.3
		c-31.6-5.9-62.4-14.9-92.2-26.7c-7.6-3-15-6.3-22.5-9.5c-0.7-0.3-1.5-0.6-2.2-1c-1.1-0.5-2-0.3-2.9,0.4c-4.1,3.2-8.2,6.4-12.3,9.6
		c-1.9,1.5-1.5,3.4,0.8,4.8c5.4,3,10.8,6,16.2,8.9c14.2,7.5,28.9,14.1,43.9,19.9c0.5,0.2,1,0.4,1.6,0.6c2.7,1.1,3.1,2.2,1.7,4.9
		c-7.5,14.8-15.7,29.1-24.8,43c-4.9,7.5-10.1,14.8-15.2,22.2c-1.7,2.4-2.3,2.6-5,1.7c-36-11.3-70.9-25.3-104.6-42.3
		c-33.4-16.9-65.1-36.6-95.3-58.7c-1.4-1-2.2-2.2-2.3-3.9c-2.4-27.4-3.7-54.9-3.1-82.5c0.6-28.4,2.8-56.7,6.9-84.8
		c8.4-57.8,24.3-113.4,47.3-167.1c16.3-38,35.8-74.3,58-109.2c3.2-5,6.5-9.9,9.7-14.9c1-1.6,2.2-2.6,3.9-3.3
		c38.3-17.4,77.8-31.1,118.6-41.1c14.1-3.4,28.2-6.4,42.5-8.9c0.4-0.1,0.8-0.1,1.2-0.2c2-0.4,3.3,0.3,4.3,2.2
		c3.7,7.1,7.5,14.1,11.1,21.3c2.9,5.9,5.5,11.9,8.3,17.8C912,725,912.2,725.6,912.7,726.4z M1067.2,1022.7c0,6.5,0.6,13,2.1,19.3
		c4.7,20.7,15,37.8,32.6,50c18.1,12.6,37.9,15.7,58.9,8.9c17.9-5.8,31.1-17.5,40.3-33.7c12.4-21.9,14.9-45.2,8.5-69.4
		c-4.9-18.5-15-33.7-30.9-44.6c-18.1-12.5-37.9-15.6-59-9.1c-13.9,4.3-25.2,12.7-34.2,24.1C1073,984.2,1067.4,1002.5,1067.2,1022.7z
		 M943.9,1022.6c-0.5-5.1-0.6-10.2-1.5-15.3c-3.4-20.8-12.8-38.3-29.5-51.4c-17.8-14-37.9-18.3-59.9-12.5c-15,4-27.3,12.6-36.7,24.9
		c-17.6,22.9-22.3,48.7-15.6,76.5c4.7,19.6,15.2,35.7,31.9,47.3c17.2,12,36.2,15.3,56.4,9.6c16.2-4.6,28.8-14.3,38.5-27.9
		C938.5,1058.5,943.4,1041.3,943.9,1022.6z"/>
</g>
</svg>
