<svg xmlns="http://www.w3.org/2000/svg" viewBox="0 0 810.2 618.11"><defs><style>.cls-1{fill:#fff;}</style></defs><g id="Layer_2" data-name="Layer 2"><g id="Calque_1" data-name="Calque 1"><path class="cls-1" d="M312.35,43.42a617.5,617.5,0,0,1,185.1,0c.5-1,.9-1.8,1.3-2.7,5.5-12.6,11.4-25,18.1-37.1,2.2-4,2.2-4,6.8-3.2q29,5.1,57.3,12.8a666.35,666.35,0,0,1,103.3,37.2,7.77,7.77,0,0,1,3.3,2.7c29.1,43,53.9,88.3,73.5,136.4a666.24,666.24,0,0,1,39.6,138.3,687.66,687.66,0,0,1,8.8,82.3,673.27,673.27,0,0,1-.3,69.6c-.6,10.7-1.6,21.4-2.3,32.1a5.54,5.54,0,0,1-2.6,4.6c-53.4,39-111,70-173.4,92-8.8,3.1-17.7,5.9-26.6,8.9-2.8.9-3.3.7-5-1.7a537.4,537.4,0,0,1-39.8-64.7,10.09,10.09,0,0,1-.7-1.5,2.48,2.48,0,0,1,1.3-3.4,11.92,11.92,0,0,1,2-.8,430.2,430.2,0,0,0,59.8-28.4c3.5-2,3.6-4.1.4-6.4-3.5-2.4-6.8-5.1-10-7.8a4.37,4.37,0,0,0-5.2-.6,503,503,0,0,1-66.8,25.2,480.84,480.84,0,0,1-75,15.8,474,474,0,0,1-86.7,3.1,468.84,468.84,0,0,1-60.2-7.3,499.1,499.1,0,0,1-92.2-26.7c-7.6-3-15-6.3-22.5-9.5a21.4,21.4,0,0,1-2.2-1,2.58,2.58,0,0,0-2.9.4l-12.3,9.6c-1.9,1.5-1.5,3.4.8,4.8,5.4,3,10.8,6,16.2,8.9a412.57,412.57,0,0,0,43.9,19.9c.5.2,1,.4,1.6.6,2.7,1.1,3.1,2.2,1.7,4.9a447.79,447.79,0,0,1-24.8,43c-4.9,7.5-10.1,14.8-15.2,22.2-1.7,2.4-2.3,2.6-5,1.7a691.54,691.54,0,0,1-104.6-42.3,685.08,685.08,0,0,1-95.3-58.7,4.91,4.91,0,0,1-2.3-3.9,756.52,756.52,0,0,1-3.1-82.5,687.54,687.54,0,0,1,6.9-84.8,665.78,665.78,0,0,1,47.3-167.1,765.9,765.9,0,0,1,58-109.2c3.2-5,6.5-9.9,9.7-14.9a7.85,7.85,0,0,1,3.9-3.3,673.84,673.84,0,0,1,118.6-41.1c14.1-3.4,28.2-6.4,42.5-8.9.4-.1.8-.1,1.2-.2,2-.4,3.3.3,4.3,2.2,3.7,7.1,7.5,14.1,11.1,21.3,2.9,5.9,5.5,11.9,8.3,17.8C311.65,42,311.85,42.62,312.35,43.42Zm154.5,296.3a83.32,83.32,0,0,0,2.09,19.3c4.7,20.7,15,37.8,32.6,50,18.1,12.6,37.9,15.7,58.9,8.9,17.91-5.8,31.1-17.5,40.31-33.7,12.4-21.9,14.9-45.2,8.5-69.4-4.9-18.5-15-33.7-30.9-44.6-18.1-12.5-37.91-15.6-59-9.1-13.91,4.3-25.2,12.7-34.2,24.1C472.65,301.22,467.05,319.52,466.85,339.72Zm-123.3-.1c-.5-5.1-.6-10.2-1.5-15.3-3.4-20.8-12.8-38.3-29.5-51.4-17.8-14-37.9-18.3-59.9-12.5a67.36,67.36,0,0,0-36.7,24.9c-17.6,22.9-22.3,48.7-15.6,76.5,4.7,19.6,15.2,35.7,31.9,47.3,17.2,12,36.2,15.3,56.4,9.6,16.2-4.6,28.8-14.3,38.5-27.9C338.15,375.52,343.05,358.32,343.55,339.62Z"/></g></g></svg>