<svg id="Calque_1" data-name="Calque 1" xmlns="http://www.w3.org/2000/svg" viewBox="0 0 691.78 77.87"><defs><style>.cls-1,.cls-5{fill:#2e2d2c;}.cls-2,.cls-5{font-size:18px;font-family:NectoMono-Regular, Necto Mono;}.cls-2{fill:gray;}.cls-3{fill:#e12b00;}.cls-4{fill:#ff5512;opacity:0.3;}</style></defs><rect class="cls-1" x="0.28" y="24.86" width="691.5" height="23.59"/><text class="cls-2" transform="translate(-0.01 15.3)">TOTAL DISTRIBUTION</text><path class="cls-3" d="M476.4,64.68a3.47,3.47,0,0,1-3.71,3.67h-3.33v5.26h-1.53V61h4.86A3.47,3.47,0,0,1,476.4,64.68Zm-1.53,0a2.07,2.07,0,0,0-2.34-2.29h-3.17V67h3.17A2.07,2.07,0,0,0,474.87,64.68Z"/><path class="cls-3" d="M487.26,61v8.42a4.25,4.25,0,1,1-8.5,0V61h1.53v8.4c0,2,1,3,2.72,3s2.72-1,2.72-3V61Z"/><path class="cls-3" d="M498,69.85a3.65,3.65,0,0,1-3.66,3.76H490V61h4.07a3.22,3.22,0,0,1,3.47,3.2,2.61,2.61,0,0,1-1.44,2.45A3.73,3.73,0,0,1,498,69.85Zm-6.45-7.46v3.67h2.68a1.71,1.71,0,0,0,1.8-1.85,1.77,1.77,0,0,0-2-1.82Zm4.92,7.46c0-.69-.29-2.4-2.72-2.4h-2.2v4.77h2.56A2.23,2.23,0,0,0,496.44,69.85Z"/><path class="cls-3" d="M509.25,72.22v1.39h-7.88V61h1.53v11.2Z"/><path class="cls-3" d="M516.72,62.39v9.83h3v1.39h-7.56V72.22h3V62.39h-3V61h7.56v1.38Z"/><path class="cls-3" d="M530.17,69.94l1.35.57a4.31,4.31,0,0,1-4.2,3.28c-3.49,0-5-3.06-5-6.48s1.5-6.48,5-6.48a4.3,4.3,0,0,1,4.2,3.27l-1.35.58c-.43-1.1-1.1-2.47-2.85-2.47-2.14,0-3.45,1.78-3.45,5.1s1.31,5.09,3.45,5.09C529.07,72.4,529.74,71,530.17,69.94Z"/><path class="cls-3" d="M545.7,69.88c.81,2.16,1.91,2.52,3.26,2.52,1.8,0,2.91-.7,2.91-2.27S550.56,68,549,67.79c-1.89-.27-4.09-.93-4.09-3.53,0-2.28,1.86-3.43,4.09-3.43a4.14,4.14,0,0,1,4.25,3.24l-1.35.57c-.63-1.91-1.57-2.43-2.9-2.43s-2.56.52-2.56,2.05,1.23,1.79,2.56,2c2.14.36,4.45,1,4.45,3.85,0,2.47-2,3.66-4.45,3.66a4.46,4.46,0,0,1-4.61-3.33Z"/><path class="cls-3" d="M561.94,69.81h-4.15l-1.26,3.8h-1.62l4.4-12.6h1.13l4.38,12.6H563.2Zm-.45-1.37-1.62-4.91-1.63,4.91Z"/><path class="cls-3" d="M575.13,72.22v1.39h-7.89V61h1.53v11.2Z"/><path class="cls-3" d="M585.7,72.22v1.39H578V61h7.57v1.38h-6v3.89h5.14v1.39h-5.14v4.55Z"/><ellipse class="cls-4" cx="428.24" cy="65.23" rx="1.54" ry="1.5"/><rect class="cls-3" x="381.2" y="58.62" width="76.57" height="17.99"/><polygon class="cls-1" points="395.63 64.28 385.16 64.28 390.4 71.74 395.63 64.28"/><text class="cls-5" transform="translate(399.38 74.18)">38.1%</text><rect class="cls-3" x="381.7" y="24.86" width="310.07" height="23.59"/></svg>
