<svg id="Calque_1" data-name="Calque 1" xmlns="http://www.w3.org/2000/svg" viewBox="0 0 691.5 77.78"><defs><style>.cls-1,.cls-5{fill:#2e2d2c;}.cls-2,.cls-5{font-size:18px;font-family:NectoMono-Regular, Necto Mono;}.cls-2,.cls-4{fill:gray;}.cls-3{fill:#e12b00;}</style></defs><rect class="cls-1" y="24.85" width="691.5" height="23.59"/><text class="cls-2" transform="translate(0.22 15.3)">TOTAL DISTRIBUTION</text><path class="cls-3" d="M197.22,65.6a3.47,3.47,0,0,1-3.71,3.67h-3.33v5.26h-1.53V61.93h4.86A3.47,3.47,0,0,1,197.22,65.6Zm-1.53,0a2.07,2.07,0,0,0-2.34-2.29h-3.17v4.58h3.17A2.07,2.07,0,0,0,195.69,65.6Z"/><path class="cls-3" d="M203.17,68.71h-1.9v5.82h-1.53V61.93h4.87a3.39,3.39,0,0,1,.17,6.78l3.27,5.82h-1.76Zm1.25-5.4h-3.15v4h3.15a2,2,0,1,0,0-4Z"/><path class="cls-3" d="M218.67,73.14v1.39h-7.74V61.93h7.56v1.38h-6V67.2h5.13v1.39h-5.13v4.55Z"/><path class="cls-3" d="M228.59,68.84v1.39h-5.8V68.84Z"/><path class="cls-3" d="M233.58,70.8c.81,2.16,1.9,2.52,3.25,2.52,1.81,0,2.92-.7,2.92-2.27s-1.31-2.12-2.92-2.34c-1.89-.27-4.08-.93-4.08-3.53,0-2.28,1.85-3.43,4.08-3.43A4.13,4.13,0,0,1,241.08,65l-1.35.57c-.63-1.91-1.56-2.43-2.9-2.43s-2.55.52-2.55,2.05,1.22,1.79,2.55,2c2.15.36,4.45,1,4.45,3.85,0,2.47-2,3.66-4.45,3.66a4.44,4.44,0,0,1-4.6-3.33Z"/><path class="cls-3" d="M249.81,70.73h-4.14l-1.26,3.8h-1.62l4.39-12.6h1.14l4.37,12.6h-1.62Zm-.45-1.37-1.62-4.91-1.62,4.91Z"/><path class="cls-3" d="M263,73.14v1.39h-7.89V61.93h1.53v11.2Z"/><path class="cls-3" d="M273.57,73.14v1.39h-7.74V61.93h7.56v1.38h-6V67.2h5.13v1.39h-5.13v4.55Z"/><rect class="cls-3" x="102.92" y="59.23" width="75.73" height="17.99"/><polygon class="cls-1" points="117.36 64.5 106.88 64.5 112.12 71.96 117.36 64.5"/><rect class="cls-4" x="384.97" y="24.88" width="306.47" height="23.59"/><rect class="cls-3" x="103.1" y="24.89" width="281.87" height="23.59"/><text class="cls-5" transform="translate(120.29 73.92)">44.8%</text></svg>