<svg id="Calque_1" data-name="Calque 1" xmlns="http://www.w3.org/2000/svg" viewBox="0 0 691.71 77.88"><defs><style>.cls-1{fill:#2e2d2c;}.cls-2{font-size:18px;font-family:NectoMono-Regular, Necto Mono;}.cls-2,.cls-4{fill:gray;}.cls-3{fill:#e12b00;}</style></defs><rect class="cls-1" x="0.08" y="24.86" width="691.5" height="23.59"/><text class="cls-2" transform="translate(0 15.3)">TOTAL DISTRIBUTION</text><path class="cls-3" d="M71.13,73.05v1.39H63.24V61.83l1.53,0v11.2Z"/><path class="cls-3" d="M81.69,73.05v1.39H74V61.83h7.56v1.39h-6v3.89h5.13V68.5H75.48v4.55Z"/><path class="cls-3" d="M92.67,73.05v1.39H84.93V61.83h7.56v1.39h-6v3.89h5.13V68.5H86.46v4.55Z"/><path class="cls-3" d="M104.37,63.22h-3.81V74.44H99V63.22H95.19V61.83h9.18Z"/><path class="cls-3" d="M126.12,65.51a3.47,3.47,0,0,1-3.71,3.67h-3.33v5.26h-1.53V61.83h4.86A3.48,3.48,0,0,1,126.12,65.51Zm-1.53,0a2.07,2.07,0,0,0-2.35-2.29h-3.16v4.57h3.16A2.06,2.06,0,0,0,124.59,65.51Z"/><path class="cls-3" d="M132.07,68.62h-1.91v5.82h-1.53V61.83h4.88a3.4,3.4,0,0,1,.17,6.79L137,74.44h-1.76Zm1.25-5.4h-3.16v4h3.16a2,2,0,1,0,0-4Z"/><path class="cls-3" d="M147.57,73.05v1.39h-7.74V61.83h7.56v1.39h-6v3.89h5.13V68.5h-5.13v4.55Z"/><path class="cls-3" d="M157.49,68.75v1.39h-5.8V68.75Z"/><path class="cls-3" d="M162.47,70.71c.81,2.16,1.91,2.52,3.26,2.52,1.8,0,2.92-.7,2.92-2.27s-1.32-2.12-2.92-2.34c-1.89-.27-4.09-.93-4.09-3.53,0-2.28,1.86-3.43,4.09-3.43A4.13,4.13,0,0,1,170,64.9l-1.35.57c-.63-1.91-1.57-2.43-2.9-2.43s-2.56.52-2.56,2.05,1.23,1.79,2.56,2c2.14.36,4.45,1,4.45,3.85,0,2.47-2,3.66-4.45,3.66a4.46,4.46,0,0,1-4.61-3.33Z"/><path class="cls-3" d="M178.71,70.64h-4.14l-1.26,3.8h-1.62l4.39-12.61h1.13l4.38,12.61H180Zm-.45-1.37-1.62-4.91L175,69.27Z"/><path class="cls-3" d="M191.9,73.05v1.39H184V61.83l1.53,0v11.2Z"/><path class="cls-3" d="M202.47,73.05v1.39h-7.74V61.83h7.56v1.39h-6v3.89h5.13V68.5h-5.13v4.55Z"/><rect class="cls-3" y="59.14" width="53.2" height="17.99"/><polygon class="cls-1" points="14.74 64.41 4.26 64.41 9.5 71.87 14.74 64.41"/><path class="cls-1" d="M26.23,73.05v1.39H18.31V73.05h3.18v-9a3.45,3.45,0,0,1-2.64,1V63.74c2.07,0,2.68-1.18,2.77-1.9H23V73.05Z"/><path class="cls-1" d="M38,68.14c0,3.22-1.44,6.48-4.77,6.48s-4.77-3.26-4.77-6.48,1.44-6.48,4.77-6.48S38,64.91,38,68.14Zm-8,0a8.44,8.44,0,0,0,.36,2.57l5-6.59A2.66,2.66,0,0,0,33.25,63C31.18,63,30,65.22,30,68.14Zm6.48,0a9.14,9.14,0,0,0-.34-2.52l-5,6.57a2.61,2.61,0,0,0,2.11,1C35.32,73.23,36.49,71.05,36.49,68.14Z"/><path class="cls-1" d="M39.22,69.63l9.46-3.82.5,1-9.47,3.82Zm.33-5.58a2.4,2.4,0,1,1,2.39,2.39A2.4,2.4,0,0,1,39.55,64.05Zm3.29,0a.91.91,0,1,0-.9,1A1,1,0,0,0,42.84,64.07Zm.92,8.15a2.4,2.4,0,1,1,2.39,2.4A2.4,2.4,0,0,1,43.76,72.22Zm3.29,0a.91.91,0,1,0-1.8,0,.91.91,0,1,0,1.8,0Z"/><rect class="cls-4" x="101.31" y="24.88" width="590.43" height="23.59"/><rect class="cls-3" x="0.21" y="24.9" width="101.11" height="23.59"/><rect class="cls-1" x="0.03" y="24.83" width="34.81" height="23.66"/></svg>