<svg id="Calque_1" data-name="Calque 1" xmlns="http://www.w3.org/2000/svg" xmlns:xlink="http://www.w3.org/1999/xlink" viewBox="0 0 28.47 56.93"><defs><style>.cls-1{fill:none;}.cls-2{fill:gray;}.cls-3{clip-path:url(#clip-path);}.cls-4{fill:#e12b00;}</style><clipPath id="clip-path"><rect class="cls-1" x="-53.66" y="182.85" width="101.33" height="23.59"/></clipPath></defs><rect class="cls-2" y="27.7" width="28.47" height="1"/><rect class="cls-2" width="1" height="56.93"/><g class="cls-3"><polygon class="cls-4" points="-194.51 263.84 -208.17 256.26 292.07 -21.44 305.74 -13.85 -194.51 263.84"/><polygon class="cls-4" points="-167.18 279.01 -180.84 271.43 319.4 -6.27 333.06 1.32 -167.18 279.01"/><polygon class="cls-4" points="-139.85 294.19 -153.51 286.6 346.73 8.9 360.39 16.49 -139.85 294.19"/><polygon class="cls-4" points="-112.52 309.36 -126.19 301.77 374.06 24.07 387.72 31.66 -112.52 309.36"/><polygon class="cls-4" points="-85.19 324.53 -98.86 316.94 401.39 39.25 415.05 46.83 -85.19 324.53"/><polygon class="cls-4" points="-57.86 339.7 -71.53 332.11 428.72 54.42 442.38 62 -57.86 339.7"/></g></svg>