<svg xmlns="http://www.w3.org/2000/svg" viewBox="0 0 733.1 597.11"><defs><style>.cls-1{fill:#fff;}</style></defs><g id="Layer_2" data-name="Layer 2"><g id="Calque_1" data-name="Calque 1"><path class="cls-1" d="M713.4,11.21a148.21,148.21,0,0,1-25.1,47.1,153,153,0,0,1-39.5,35.2c4.1.8,28.2-3.9,43-8a410.85,410.85,0,0,0,41.3-14.2c-.3.5-.5,1.1-.8,1.6a313.89,313.89,0,0,1-34.8,42.4,301,301,0,0,1-37.3,32.3,3.34,3.34,0,0,0-1.6,3.2c.2,6.8.5,13.6.4,20.4-.1,7-.3,13.9-.7,20.8-.6,11.6-1.9,23.1-3.5,34.6-2,14-4.7,27.9-8,41.7a464.6,464.6,0,0,1-15.3,50,440.68,440.68,0,0,1-22,49.8,443.58,443.58,0,0,1-45.3,70.6,413.92,413.92,0,0,1-39.2,43.4,405.88,405.88,0,0,1-101.3,71.5,409.81,409.81,0,0,1-78.1,29.1c-13.9,3.6-28,6.6-42.2,8.8a413.33,413.33,0,0,1-45.8,4.8c-9.3.4-18.5.8-27.8.8a425.69,425.69,0,0,1-52.9-3.3,423.84,423.84,0,0,1-126.1-36.1,427.42,427.42,0,0,1-49.3-26.8,7.12,7.12,0,0,1-1.5-1.2c10.1.5,19.8,1,29.5,1.5a264.21,264.21,0,0,0,29.5-.8,283.78,283.78,0,0,0,29-3.7c9.7-1.7,19.3-3.9,28.8-6.5a278.24,278.24,0,0,0,28-9.3,259.13,259.13,0,0,0,26.9-12c8.6-4.6,17.1-9.4,25.4-14.4a201.08,201.08,0,0,0,24-17.1c-48.1-2.7-87.2-22.6-116.7-60.7a142.94,142.94,0,0,1-22.9-44.4,152.62,152.62,0,0,0,64.9-1.8,9.27,9.27,0,0,0,1.9-.7c-48-11.7-83.2-39-104.9-83-10.3-20.8-14.8-43-14.6-66.8,21.1,11.5,43.1,17.8,66.8,18.5-1.7-1.9-3.9-3.1-5.8-4.7-2.1-1.7-4.2-3.3-6.2-5a69.1,69.1,0,0,1-5.7-5.1c-1.9-1.8-3.8-3.7-5.6-5.6s-3.5-3.7-5.2-5.7-3.4-4-5-6.1-3.1-4.1-4.6-6.2-3-4.4-4.4-6.6-2.7-4.4-3.9-6.6-2.5-4.6-3.7-7-2.2-4.6-3.2-7-2-4.9-2.9-7.4-1.7-4.8-2.5-7.3-1.5-5.1-2.2-7.6-1.2-5-1.7-7.5-1-5.2-1.4-7.8-.7-5.1-.9-7.6-.5-5.3-.6-7.9-.1-5.1,0-7.7.1-5.3.2-7.9.4-5.1.6-7.6.6-5.2,1.1-7.8.9-5,1.4-7.5,1.2-5.1,1.9-7.7,1.4-4.9,2.2-7.3,1.7-5,2.7-7.4,1.9-4.8,3-7.1,2.2-4.8,3.4-7.1,2.4-4.5,3.8-7.1c.9.9,1.5,1.6,2.1,2.3a399.4,399.4,0,0,0,28.4,31.2,424.82,424.82,0,0,0,64.6,52.7,425.7,425.7,0,0,0,97.7,48.4,441.32,441.32,0,0,0,50.3,14,424.94,424.94,0,0,0,52.6,7.8c4.1.4,8.3.6,12.4.8.6,0,1.2-.1,2-.1-.1-.8-.1-1.4-.2-2a152.51,152.51,0,0,1-3.1-41A150.55,150.55,0,0,1,500,.21a150.14,150.14,0,0,1,55.3,7.4,148,148,0,0,1,54.9,32.5c2.1,2,4.2,4,6.2,6a3.15,3.15,0,0,0,3.4,1,299,299,0,0,0,77.3-27.3c4.8-2.5,9.4-5.1,14.1-7.7C711.8,11.91,712.3,11.61,713.4,11.21Z"/></g></g></svg>