<?xml version="1.0" encoding="utf-8"?>
<!-- Generator: Adobe Illustrator 23.0.6, SVG Export Plug-In . SVG Version: 6.00 Build 0)  -->
<svg version="1.1" id="Calque_1" xmlns="http://www.w3.org/2000/svg" xmlns:xlink="http://www.w3.org/1999/xlink" x="0px" y="0px"
	 viewBox="0 0 2000 2000" style="enable-background:new 0 0 2000 2000;" xml:space="preserve">
<style type="text/css">
	.st0{fill:#FFFFFF;}
</style>
<g>
	<path class="st0" d="M1352.2,707c-5.7,17.6-14,33.1-25.1,47.1c-11,14-24.2,25.6-39.5,35.2c4.1,0.8,28.2-3.9,43-8
		c14-3.9,27.7-8.8,41.3-14.2c-0.3,0.5-0.5,1.1-0.8,1.6c-10.4,15.1-21.9,29.3-34.8,42.4c-11.6,11.8-24,22.6-37.3,32.3
		c-1.1,0.8-1.7,1.7-1.6,3.2c0.2,6.8,0.5,13.6,0.4,20.4c-0.1,7-0.3,13.9-0.7,20.8c-0.6,11.6-1.9,23.1-3.5,34.6c-2,14-4.7,27.9-8,41.7
		c-4.1,16.9-9.3,33.6-15.3,50c-6.3,17-13.6,33.6-22,49.8c-12.9,24.9-27.9,48.5-45.3,70.6c-12.1,15.4-25.1,29.9-39.2,43.4
		c-16.9,16.3-35.1,31.1-54.5,44.2c-15,10.1-30.6,19.3-46.8,27.3c-25,12.4-51.1,22-78.1,29.1c-13.9,3.6-28,6.6-42.2,8.8
		c-15.2,2.4-30.4,4.1-45.8,4.8c-9.3,0.4-18.5,0.8-27.8,0.8c-17.7,0-35.3-1.1-52.9-3.3c-43.9-5.5-85.9-17.5-126.1-36.1
		c-17-7.8-33.4-16.8-49.3-26.8c-0.5-0.3-0.9-0.6-1.5-1.2c10.1,0.5,19.8,1,29.5,1.5c9.8,0.4,19.7-0.1,29.5-0.8c9.7-0.7,19.4-2,29-3.7
		c9.7-1.7,19.3-3.9,28.8-6.5s18.8-5.7,28-9.3c9.2-3.6,18.2-7.4,26.9-12c8.6-4.6,17.1-9.4,25.4-14.4c8.4-5.1,16.4-10.8,24-17.1
		c-48.1-2.7-87.2-22.6-116.7-60.7c-10.2-13.3-17.7-28-22.9-44.4c22,4,43.5,3.5,64.9-1.8c0.5-0.1,1-0.3,1.9-0.7
		c-48-11.7-83.2-39-104.9-83c-10.3-20.8-14.8-43-14.6-66.8c21.1,11.5,43.1,17.8,66.8,18.5c-1.7-1.9-3.9-3.1-5.8-4.7
		c-2.1-1.7-4.2-3.3-6.2-5c-2-1.6-3.9-3.3-5.7-5.1c-1.9-1.8-3.8-3.7-5.6-5.6c-1.8-1.8-3.5-3.7-5.2-5.7s-3.4-4-5-6.1
		c-1.6-2-3.1-4.1-4.6-6.2c-1.5-2.2-3-4.4-4.4-6.6c-1.4-2.2-2.7-4.4-3.9-6.6c-1.3-2.3-2.5-4.6-3.7-7c-1.1-2.3-2.2-4.6-3.2-7
		s-2-4.9-2.9-7.4c-0.9-2.4-1.7-4.8-2.5-7.3s-1.5-5.1-2.2-7.6c-0.6-2.5-1.2-5-1.7-7.5c-0.5-2.6-1-5.2-1.4-7.8
		c-0.4-2.5-0.7-5.1-0.9-7.6c-0.3-2.6-0.5-5.3-0.6-7.9c-0.1-2.6-0.1-5.1,0-7.7c0-2.6,0.1-5.3,0.2-7.9c0.1-2.6,0.4-5.1,0.6-7.6
		c0.3-2.6,0.6-5.2,1.1-7.8c0.4-2.5,0.9-5,1.4-7.5c0.6-2.6,1.2-5.1,1.9-7.7c0.7-2.5,1.4-4.9,2.2-7.3c0.8-2.5,1.7-5,2.7-7.4
		c0.9-2.4,1.9-4.8,3-7.1c1.1-2.4,2.2-4.8,3.4-7.1s2.4-4.5,3.8-7.1c0.9,0.9,1.5,1.6,2.1,2.3c8.9,10.9,18.4,21.3,28.4,31.2
		c19.8,19.6,41.3,37.3,64.6,52.7c30.5,20.3,63.1,36.5,97.7,48.4c16.5,5.7,33.3,10.3,50.3,14c17.4,3.7,34.9,6.3,52.6,7.8
		c4.1,0.4,8.3,0.6,12.4,0.8c0.6,0,1.2-0.1,2-0.1c-0.1-0.8-0.1-1.4-0.2-2c-2.9-13.5-3.9-27.2-3.1-41c1.8-29.4,11.3-56.2,28.7-79.9
		c19-25.9,43.9-44,74.4-54.2c12.9-4.3,26.1-6.7,39.7-7.4c18.9-1,37.4,1.5,55.3,7.4c20.6,6.8,39,17.7,54.9,32.5c2.1,2,4.2,4,6.2,6
		c1,1.1,2,1.3,3.4,1c27-5.6,52.8-14.6,77.3-27.3c4.8-2.5,9.4-5.1,14.1-7.7C1350.6,707.7,1351.1,707.4,1352.2,707z"/>
</g>
</svg>
