<svg id="Calque_1" data-name="Calque 1" xmlns="http://www.w3.org/2000/svg" viewBox="0 0 35.11 951.2"><defs><style>.cls-1{fill:none;stroke:#e12b00;stroke-miterlimit:10;}</style></defs><line class="cls-1" x1="32.3" y1="0.5" x2="15.91" y2="0.5"/><line class="cls-1" x1="32.3" y1="10.72" x2="15.91" y2="10.72"/><line class="cls-1" x1="32.3" y1="20.93" x2="15.91" y2="20.93"/><line class="cls-1" x1="32.3" y1="31.15" x2="15.91" y2="31.15"/><line class="cls-1" x1="32.3" y1="41.37" x2="2.81" y2="41.37"/><line class="cls-1" x1="32.3" y1="51.59" x2="15.91" y2="51.59"/><line class="cls-1" x1="32.3" y1="61.8" x2="15.91" y2="61.8"/><line class="cls-1" x1="32.3" y1="72.02" x2="15.91" y2="72.02"/><line class="cls-1" x1="32.3" y1="82.24" x2="15.91" y2="82.24"/><line class="cls-1" x1="32.3" y1="92.46" x2="9.24" y2="92.46"/><line class="cls-1" x1="32.3" y1="102.67" x2="12.93" y2="102.67"/><line class="cls-1" x1="32.3" y1="112.89" x2="12.93" y2="112.89"/><line class="cls-1" x1="32.3" y1="123.11" x2="12.93" y2="123.11"/><line class="cls-1" x1="32.3" y1="133.32" x2="12.93" y2="133.32"/><line class="cls-1" x1="32.3" y1="143.54" x2="2.81" y2="143.54"/><line class="cls-1" x1="32.3" y1="153.76" x2="15.91" y2="153.76"/><line class="cls-1" x1="32.3" y1="163.98" x2="15.91" y2="163.98"/><line class="cls-1" x1="32.3" y1="174.19" x2="15.91" y2="174.19"/><line class="cls-1" x1="32.3" y1="184.41" x2="15.91" y2="184.41"/><line class="cls-1" x1="32.3" y1="194.63" x2="9.24" y2="194.63"/><line class="cls-1" x1="32.3" y1="204.85" x2="12.93" y2="204.85"/><line class="cls-1" x1="32.3" y1="215.06" x2="12.93" y2="215.06"/><line class="cls-1" x1="32.3" y1="225.28" x2="12.93" y2="225.28"/><line class="cls-1" x1="32.3" y1="235.5" x2="12.93" y2="235.5"/><line class="cls-1" x1="32.3" y1="245.71" x2="2.81" y2="245.71"/><line class="cls-1" x1="32.3" y1="255.93" x2="15.91" y2="255.93"/><line class="cls-1" x1="32.3" y1="266.15" x2="15.91" y2="266.15"/><line class="cls-1" x1="32.3" y1="276.37" x2="15.91" y2="276.37"/><line class="cls-1" x1="32.3" y1="286.58" x2="15.91" y2="286.58"/><line class="cls-1" x1="32.3" y1="296.8" x2="9.24" y2="296.8"/><line class="cls-1" x1="32.3" y1="307.02" x2="12.93" y2="307.02"/><line class="cls-1" x1="32.3" y1="317.23" x2="12.93" y2="317.23"/><line class="cls-1" x1="32.3" y1="327.45" x2="12.93" y2="327.45"/><line class="cls-1" x1="32.3" y1="337.67" x2="12.93" y2="337.67"/><line class="cls-1" x1="32.3" y1="347.89" x2="2.81" y2="347.89"/><line class="cls-1" x1="32.3" y1="358.1" x2="15.91" y2="358.1"/><line class="cls-1" x1="32.3" y1="368.32" x2="15.91" y2="368.32"/><line class="cls-1" x1="32.3" y1="378.54" x2="15.91" y2="378.54"/><line class="cls-1" x1="32.3" y1="388.76" x2="15.91" y2="388.76"/><line class="cls-1" x1="32.3" y1="398.97" x2="9.24" y2="398.97"/><line class="cls-1" x1="32.3" y1="409.19" x2="12.93" y2="409.19"/><line class="cls-1" x1="32.3" y1="419.41" x2="12.93" y2="419.41"/><line class="cls-1" x1="32.3" y1="429.62" x2="12.93" y2="429.62"/><line class="cls-1" x1="32.3" y1="439.84" x2="12.93" y2="439.84"/><line class="cls-1" x1="32.3" y1="450.06" x2="2.81" y2="450.06"/><line class="cls-1" x1="32.3" y1="460.28" x2="15.91" y2="460.28"/><line class="cls-1" x1="32.3" y1="470.49" x2="15.91" y2="470.49"/><line class="cls-1" x1="32.3" y1="480.71" x2="15.91" y2="480.71"/><line class="cls-1" x1="32.3" y1="490.93" x2="15.91" y2="490.93"/><line class="cls-1" x1="32.3" y1="501.15" x2="9.24" y2="501.15"/><line class="cls-1" x1="32.3" y1="511.36" x2="12.93" y2="511.36"/><line class="cls-1" x1="32.3" y1="521.58" x2="12.93" y2="521.58"/><line class="cls-1" x1="32.3" y1="531.8" x2="12.93" y2="531.8"/><line class="cls-1" x1="32.3" y1="542.01" x2="12.93" y2="542.01"/><line class="cls-1" x1="32.3" y1="552.23" x2="2.81" y2="552.23"/><line class="cls-1" x1="32.3" y1="562.45" x2="15.91" y2="562.45"/><line class="cls-1" x1="32.3" y1="572.67" x2="15.91" y2="572.67"/><line class="cls-1" x1="32.3" y1="582.88" x2="15.91" y2="582.88"/><line class="cls-1" x1="32.3" y1="593.1" x2="15.91" y2="593.1"/><line class="cls-1" x1="32.3" y1="603.32" x2="9.24" y2="603.32"/><line class="cls-1" x1="32.3" y1="613.54" x2="12.93" y2="613.54"/><line class="cls-1" x1="32.3" y1="623.75" x2="12.93" y2="623.75"/><line class="cls-1" x1="32.3" y1="633.97" x2="12.93" y2="633.97"/><line class="cls-1" x1="32.3" y1="644.19" x2="12.93" y2="644.19"/><line class="cls-1" x1="32.3" y1="654.4" x2="2.81" y2="654.4"/><line class="cls-1" x1="32.3" y1="664.62" x2="15.91" y2="664.62"/><line class="cls-1" x1="32.3" y1="674.84" x2="15.91" y2="674.84"/><line class="cls-1" x1="32.3" y1="685.06" x2="15.91" y2="685.06"/><line class="cls-1" x1="32.3" y1="695.27" x2="15.91" y2="695.27"/><line class="cls-1" x1="32.3" y1="705.49" x2="9.24" y2="705.49"/><line class="cls-1" x1="32.3" y1="715.71" x2="12.93" y2="715.71"/><line class="cls-1" x1="32.3" y1="725.92" x2="12.93" y2="725.92"/><line class="cls-1" x1="32.3" y1="736.14" x2="12.93" y2="736.14"/><line class="cls-1" x1="32.3" y1="746.36" x2="12.93" y2="746.36"/><line class="cls-1" x1="32.3" y1="756.58" x2="2.81" y2="756.58"/><line class="cls-1" x1="32.3" y1="766.79" x2="15.91" y2="766.79"/><line class="cls-1" x1="32.3" y1="777.01" x2="15.91" y2="777.01"/><line class="cls-1" x1="32.3" y1="787.23" x2="15.91" y2="787.23"/><line class="cls-1" x1="32.3" y1="797.45" x2="15.91" y2="797.45"/><line class="cls-1" x1="32.3" y1="807.66" x2="9.24" y2="807.66"/><line class="cls-1" x1="32.3" y1="817.88" x2="12.93" y2="817.88"/><line class="cls-1" x1="32.3" y1="828.1" x2="12.93" y2="828.1"/><line class="cls-1" x1="32.3" y1="838.31" x2="12.93" y2="838.31"/><line class="cls-1" x1="32.3" y1="848.53" x2="12.93" y2="848.53"/><line class="cls-1" x1="32.3" y1="858.75" x2="2.81" y2="858.75"/><line class="cls-1" x1="32.3" y1="868.97" x2="15.91" y2="868.97"/><line class="cls-1" x1="32.3" y1="879.18" x2="15.91" y2="879.18"/><line class="cls-1" x1="32.3" y1="889.4" x2="15.91" y2="889.4"/><line class="cls-1" x1="32.3" y1="899.62" x2="15.91" y2="899.62"/><line class="cls-1" x1="32.3" y1="909.84" x2="9.24" y2="909.84"/><line class="cls-1" x1="32.3" y1="920.05" x2="12.93" y2="920.05"/><line class="cls-1" x1="32.3" y1="930.27" x2="12.93" y2="930.27"/><line class="cls-1" x1="32.3" y1="940.49" x2="12.93" y2="940.49"/><line class="cls-1" x1="32.3" y1="950.7" x2="12.93" y2="950.7"/></svg>