<svg id="Calque_1" data-name="Calque 1" xmlns="http://www.w3.org/2000/svg" viewBox="0 0 1920 1200"><defs><style>.cls-1,.cls-2{fill:none;stroke-dasharray:12;}.cls-1,.cls-5{stroke:#e12b00;}.cls-1,.cls-2,.cls-5{stroke-miterlimit:10;}.cls-2{stroke:#666;}.cls-3{fill:#666;}.cls-4,.cls-5{fill:#e12b00;}</style></defs><line class="cls-1" x1="800.48" y1="853.83" x2="413.55" y2="853.83"/><polyline class="cls-1" points="413.97 708.68 413.97 467.72 648.33 467.72"/><polyline class="cls-1" points="1274.93 590.49 1496.17 590.49 1496.17 534.76"/><polyline class="cls-1" points="1495.73 389.72 1495.73 256.7 1114.13 256.7"/><polyline class="cls-2" points="510.15 466.22 510.15 304.72 312.49 304.72"/><polyline class="cls-2" points="1411.95 591.91 1411.95 945.41 1613.61 945.41"/><path class="cls-3" d="M1680.26,944.76h-12.54a36.11,36.11,0,0,0-35.57-35.56V896.66h-1V909.2a36.1,36.1,0,0,0-35.56,35.56H1583v1h12.55a36.11,36.11,0,0,0,35.56,35.57v12.54h1V981.33a36.11,36.11,0,0,0,35.57-35.57h12.54Zm-48.11-34.56a35.11,35.11,0,0,1,34.57,34.56h-15.64a19.46,19.46,0,0,0-18.93-18.93Zm-.5,16.61a18.46,18.46,0,1,1-18.46,18.45A18.48,18.48,0,0,1,1631.65,926.81Zm-.5-16.61v15.63a19.46,19.46,0,0,0-18.93,18.93h-15.63A35.1,35.1,0,0,1,1631.15,910.2Zm-34.56,35.56h15.63a19.46,19.46,0,0,0,18.93,18.94v15.63A35.1,35.1,0,0,1,1596.59,945.76Zm35.56,34.57V964.7a19.46,19.46,0,0,0,18.93-18.94h15.64A35.11,35.11,0,0,1,1632.15,980.33Z"/><circle class="cls-3" cx="1631.65" cy="945.26" r="10.42"/><path d="M1632.6,944.48c.84-.72,1.84-1.31,1.84-2.66,0-1.66-1.53-2.13-2.74-2.13-1.37,0-2.29.53-3,2.68l-1.45-.62a4.39,4.39,0,0,1,4.5-3.52c2.23,0,4.32,1.15,4.32,3.59,0,1.88-1.25,2.78-2.17,3.56a3.61,3.61,0,0,0-1.47,3.83h-1.6A4.8,4.8,0,0,1,1632.6,944.48Zm-.16,6.2v1.62h-1.62v-1.62Z"/><path d="M1632.69,952.55h-2.12v-2.12h2.12Zm-1.62-.5h1.12v-1.12h-1.12Zm1.66-2.59h-2.12l0-.2a5,5,0,0,1,1.86-5h0l.37-.31a2.73,2.73,0,0,0,1.38-2.16c0-1.74-1.91-1.88-2.49-1.88-1.22,0-2.07.41-2.77,2.51l-.09.26-1.9-.82.06-.21a4.63,4.63,0,0,1,4.74-3.7c2.27,0,4.57,1.19,4.57,3.84a4.48,4.48,0,0,1-2,3.58l-.21.17a3.36,3.36,0,0,0-1.38,3.59Zm-1.7-.5h1.1a3.83,3.83,0,0,1,1.6-3.77l.21-.18a4,4,0,0,0,1.87-3.19c0-2.47-2.19-3.34-4.07-3.34a4.07,4.07,0,0,0-4.19,3.12l1,.44c.68-1.86,1.58-2.6,3.16-2.6s3,.63,3,2.38a3.17,3.17,0,0,1-1.57,2.55l-.36.3A4.59,4.59,0,0,0,1631,949Z"/><path class="cls-4" d="M1553.39,461.2h-14.91a42.92,42.92,0,0,0-42.27-42.27V404H1495v14.91a42.92,42.92,0,0,0-42.27,42.27h-14.91v1.19h14.91A42.92,42.92,0,0,0,1495,504.66v14.91h1.19V504.66a42.92,42.92,0,0,0,42.27-42.27h14.91Zm-57.18-41.08a41.71,41.71,0,0,1,41.08,41.08h-18.58a23.11,23.11,0,0,0-22.5-22.5Zm-.59,19.74a21.94,21.94,0,1,1-21.94,21.93A22,22,0,0,1,1495.62,439.86Zm-.6-19.74V438.7a23.11,23.11,0,0,0-22.5,22.5h-18.58A41.71,41.71,0,0,1,1495,420.12Zm-41.08,42.27h18.58a23.12,23.12,0,0,0,22.5,22.5v18.58A41.72,41.72,0,0,1,1453.94,462.39Zm42.27,41.08V484.89a23.12,23.12,0,0,0,22.5-22.5h18.58A41.71,41.71,0,0,1,1496.21,503.47Z"/><circle class="cls-5" cx="1495.62" cy="461.79" r="4.42"/><path class="cls-3" d="M309.86,304.34H297.31a36.11,36.11,0,0,0-35.56-35.57V256.23h-1v12.54a36.11,36.11,0,0,0-35.57,35.57H212.64v1h12.54a36.11,36.11,0,0,0,35.57,35.56v12.55h1V340.9a36.1,36.1,0,0,0,35.56-35.56h12.55Zm-48.11-34.57a35.1,35.1,0,0,1,34.56,34.57H280.68a19.45,19.45,0,0,0-18.93-18.93Zm-.5,16.61a18.46,18.46,0,1,1-18.46,18.46A18.48,18.48,0,0,1,261.25,286.38Zm-.5-16.61v15.64a19.45,19.45,0,0,0-18.93,18.93H226.18A35.11,35.11,0,0,1,260.75,269.77Zm-34.57,35.57h15.64a19.45,19.45,0,0,0,18.93,18.93V339.9A35.1,35.1,0,0,1,226.18,305.34Zm35.57,34.56V324.27a19.45,19.45,0,0,0,18.93-18.93h15.63A35.09,35.09,0,0,1,261.75,339.9Z"/><circle class="cls-3" cx="261.25" cy="304.84" r="10.42"/><path d="M262.2,304.06c.84-.73,1.83-1.31,1.83-2.66,0-1.66-1.52-2.13-2.73-2.13-1.37,0-2.29.52-3,2.67l-1.45-.62a4.38,4.38,0,0,1,4.5-3.52c2.23,0,4.32,1.15,4.32,3.6,0,1.87-1.25,2.77-2.17,3.55a3.61,3.61,0,0,0-1.47,3.84h-1.6A4.8,4.8,0,0,1,262.2,304.06Zm-.16,6.19v1.62h-1.62v-1.62Z"/><path d="M262.29,312.12h-2.12V310h2.12Zm-1.62-.5h1.12V310.5h-1.12Zm1.65-2.58h-2.11l0-.21a5,5,0,0,1,1.86-5h0l.38-.31a2.78,2.78,0,0,0,1.37-2.16c0-1.75-1.9-1.88-2.48-1.88-1.23,0-2.07.41-2.77,2.5l-.09.26-1.9-.82.06-.21a4.62,4.62,0,0,1,4.74-3.7c2.27,0,4.57,1.19,4.57,3.85a4.48,4.48,0,0,1-2.05,3.57l-.21.17a3.37,3.37,0,0,0-1.38,3.6Zm-1.69-.5h1.1a3.84,3.84,0,0,1,1.59-3.78l.22-.17a4,4,0,0,0,1.87-3.19c0-2.47-2.2-3.35-4.07-3.35a4.08,4.08,0,0,0-4.2,3.13l1,.43c.68-1.86,1.58-2.59,3.16-2.59s3,.62,3,2.38a3.16,3.16,0,0,1-1.56,2.54l-.36.3A4.6,4.6,0,0,0,260.63,308.54Z"/><path class="cls-4" d="M471.74,783.18H456.83a42.91,42.91,0,0,0-42.27-42.27V726h-1.19v14.91a42.92,42.92,0,0,0-42.27,42.27H356.19v1.19H371.1a42.91,42.91,0,0,0,42.27,42.27v14.91h1.19V826.64a42.9,42.9,0,0,0,42.27-42.27h14.91ZM414.56,742.1a41.74,41.74,0,0,1,41.09,41.08H437.07a23.13,23.13,0,0,0-22.51-22.5ZM414,761.84A21.94,21.94,0,1,1,392,783.78,22,22,0,0,1,414,761.84Zm-.6-19.74v18.58a23.13,23.13,0,0,0-22.5,22.5H372.29A41.73,41.73,0,0,1,413.37,742.1Zm-41.08,42.27h18.58a23.13,23.13,0,0,0,22.5,22.5v18.58A41.72,41.72,0,0,1,372.29,784.37Zm42.27,41.08V806.87a23.13,23.13,0,0,0,22.51-22.5h18.58A41.72,41.72,0,0,1,414.56,825.45Z"/><circle class="cls-5" cx="413.97" cy="783.78" r="4.42"/></svg>