<svg id="Calque_1" data-name="Calque 1" xmlns="http://www.w3.org/2000/svg" viewBox="0 0 130.72 29.62"><defs><style>.cls-1{fill:none;stroke:#808080;stroke-miterlimit:10;}.cls-2{fill:#808080;}</style></defs><rect class="cls-1" x="42.2" y="3.04" width="88.02" height="26.05"/><path class="cls-2" d="M54.48,16.44H58.2v5.72H57.11L57,20.51a3,3,0,0,1-2.87,1.83c-3.27,0-4.82-2.88-4.82-6.32s1.46-6.33,4.82-6.33a4.21,4.21,0,0,1,4.15,3.2l-1.31.56C56.5,12.38,55.85,11,54.08,11c-2,0-3.33,1.74-3.33,5S52,21,54.08,21c1.54,0,2.84-1,2.84-3.24h0l-2.44.05Z"/><path class="cls-2" d="M66.46,18.46h-4l-1.22,3.7H59.63L63.91,9.87H65l4.26,12.29H67.69ZM66,17.12l-1.57-4.79-1.58,4.79Z"/><path class="cls-2" d="M79.3,20.81v1.35H71.63V9.87l1.48,0V20.81Z"/><path class="cls-2" d="M90,20.81v1.35H82.31V9.87l1.49,0V20.81Z"/><path class="cls-2" d="M100.26,20.81v1.35H92.73V9.87h7.35v1.35H94.21V15h5v1.36h-5v4.44Z"/><path class="cls-2" d="M106.54,16.49h-1.85v5.67H103.2V9.87h4.74a3.22,3.22,0,0,1,3.26,3.3,3.23,3.23,0,0,1-3.1,3.32l3.19,5.67h-1.72Zm1.21-5.27h-3.06v3.92h3.06a1.84,1.84,0,0,0,2-2A1.85,1.85,0,0,0,107.75,11.22Z"/><path class="cls-2" d="M122.58,9.87l-4,7.3v5h-1.49v-5l-4-7.3h1.67l3.06,6.07,3-6.07Z"/><path class="cls-2" d="M19.66,29.62h-14a1.92,1.92,0,0,1-2-1.69c-.3-1.55-.58-3.1-.85-4.65L1.14,14C.77,11.88.39,9.82,0,7.75a1.49,1.49,0,0,1,1.5-1.68c.56,0,1.13,0,1.7,0,.31,0,.44-.1.42-.42a5.25,5.25,0,0,1,0-1A1.93,1.93,0,0,1,5.63,3c.79,0,.73.11.73-.73a10.84,10.84,0,0,1,0-1.51.5.5,0,0,1,.3-.4A4.2,4.2,0,0,1,8.82.05a12,12,0,0,0,4.39,0A2.2,2.2,0,0,1,15.7.87c.51.69,1,1.37,1.47,2.1H33.32a2,2,0,0,1,2,1.2,2.16,2.16,0,0,1,.17.83q0,11.24,0,22.47c0,.14,0,.29,0,.43a1.6,1.6,0,0,1-1.77,1.72h-14Zm14-25.21H6.39c-1,0-1,0-1,1,0,.68,0,.68.67.68H28.83c.29,0,.57,0,.86,0A2.28,2.28,0,0,1,31.8,7.75c.45,2.37.86,4.74,1.29,7.12.18,1,.36,2,.53,2.93h.07Z"/></svg>