<svg xmlns="http://www.w3.org/2000/svg" viewBox="0 0 143.49 30.13"><defs><style>.cls-1{fill:gray;}</style></defs><g id="Calque_3" data-name="Calque 3"><g id="Calque_2" data-name="Calque 2"><g id="Calque_1-2" data-name="Calque 1-2"><path class="cls-1" d="M68.57,11.41h9.17a1.49,1.49,0,0,1,1.46,2.31c-1.59,3.18-3.16,6.36-4.78,9.52A3.43,3.43,0,0,1,71,25.43c-5.22-.12-10.44,0-15.66,0a1.39,1.39,0,0,1-1.38-2Q58.78,13.69,63.64,4a2,2,0,0,1,.27-.32C65.68,5.47,67.45,7.22,69.19,9a1.11,1.11,0,0,1,0,.87A11.77,11.77,0,0,1,68.57,11.41ZM62.82,22.69c1,0,1.88,0,2.71,0a1,1,0,0,0,.73-.36C67.62,19.68,69,17,70.39,14.18c-1.06,0-1.91,0-2.76,0a1,1,0,0,0-.7.44C65.58,17.24,64.26,19.87,62.82,22.69Z"/><path class="cls-1" d="M39.66,22.65a7.7,7.7,0,0,1,1,.05,2.51,2.51,0,0,0,3.24-1.92c.19-.67.65-.87,1.37-.86,2.48,0,5,0,7.67,0-.77,1.47-1.38,2.81-2.15,4a3.08,3.08,0,0,1-2.94,1.45c-5.22-.1-10.45,0-15.67,0a1.42,1.42,0,0,1-1.34-2.18C32.41,20,34,16.76,35.63,13.57a3.57,3.57,0,0,1,3.56-2.22c5.1.13,10.21.05,15.32.05A1.51,1.51,0,0,1,56,13.71c-.71,1.5-1.48,3-2.15,4.5a1.19,1.19,0,0,1-1.31.79c-3.29,0-6.58,0-9.87,0A1.51,1.51,0,0,0,41,20C40.66,20.85,40.18,21.66,39.66,22.65Zm3.42-6.54c3.62.18,3.11.44,3.9-1.81-2.82-.5-3.19-.33-3.9,1.82Z"/><path class="cls-1" d="M86,22.69a4.69,4.69,0,0,1,.8,0,2.73,2.73,0,0,0,3.53-2,1.27,1.27,0,0,1,1-.69c2.57-.06,5.14,0,8,0-1,1.89-1.59,3.87-3.24,5.19a1.58,1.58,0,0,1-.94.25q-8.34,0-16.68,0a1.41,1.41,0,0,1-1.26-2.1c1.63-3.29,3.23-6.59,4.93-9.84a3.43,3.43,0,0,1,3.39-2.1c5.14.13,10.28.05,15.43.05a1.51,1.51,0,0,1,1.45,2.33c-.69,1.47-1.43,2.92-2.09,4.41a1.27,1.27,0,0,1-1.37.86c-3.33,0-6.66,0-10,0a1.29,1.29,0,0,0-1.4.84C87.1,20.73,86.59,21.61,86,22.69Zm3.41-6.56c3.66.16,3.12.4,3.93-1.83-2.91-.5-3.14-.39-3.93,1.83Z"/><path class="cls-1" d="M127.47,15.24c.15-.43.24-.69.33-1-3.09-.35-3.14-.33-4,1.74.34,0,.65.07,1,.07h8.62c1.18,0,1.69.81,1.17,1.86-1.14,2.27-2.27,4.54-3.47,6.77a1.47,1.47,0,0,1-1.11.64c-5.45.05-10.89,0-16.34,0-1.15,0-2-1.57-1.69-2.65.66-2.24,2-3,4.33-2.74a46.58,46.58,0,0,0,5.56,0l-1.14,2.49c2.69.54,3.41,0,4.73-3.69h-6.8c-.75,0-1.51,0-2.27,0A1.46,1.46,0,0,1,115,16.61c.74-1.49,1.45-3,2.25-4.45a1.52,1.52,0,0,1,1.07-.73c6.36,0,12.72,0,19.07,0a4.07,4.07,0,0,1,.53.1c-.64,1.2-1.24,2.36-1.89,3.48-.09.16-.45.24-.69.24C132.76,15.25,130.19,15.24,127.47,15.24Z"/><path class="cls-1" d="M22.18,17.52l1.71-3.47a21.87,21.87,0,0,0-2.72,0,1.54,1.54,0,0,0-.91.8c-1.64,3.19-3.26,6.39-4.83,9.62a1.36,1.36,0,0,1-1.47.9c-2.45-.05-4.91,0-7.52,0l1.46-2.9c1.73-3.45,3.44-6.9,5.22-10.32a1.62,1.62,0,0,1,1.11-.84c6.35-.05,12.7,0,19.05,0a4.85,4.85,0,0,1,.55.08c-1,2-1.9,3.86-2.87,5.72a1,1,0,0,1-.72.4C27.64,17.53,25,17.52,22.18,17.52Z"/><path class="cls-1" d="M110.41,3.61c1.82,1.84,3.54,3.54,5.21,5.3a1.15,1.15,0,0,1,.12,1q-3.64,7.43-7.39,14.81c-.13.26-.45.6-.69.6-2.67,0-5.34,0-8.2,0Z"/></g></g></g></svg>