<svg id="Calque_1" data-name="Calque 1" xmlns="http://www.w3.org/2000/svg" viewBox="0 0 340 340"><defs><style>.cls-1,.cls-10,.cls-11,.cls-2,.cls-3,.cls-4,.cls-5,.cls-6,.cls-7,.cls-8,.cls-9{fill:#ff3600;}.cls-1{opacity:0.66;}.cls-2{opacity:0.55;}.cls-3{opacity:0.73;}.cls-4{opacity:0.47;}.cls-5{opacity:0.77;}.cls-6{opacity:0.41;}.cls-7{opacity:0.84;}.cls-8{opacity:0.91;}.cls-10{opacity:0.3;}.cls-11{opacity:0.2;}</style></defs><path class="cls-1" d="M169.7,315.39h-.29a171.09,171.09,0,0,1-51.35-9.63l5-13.89a156.56,156.56,0,0,0,46.78,8.77l2.4,0,.28,14.75C171.59,315.38,170.65,315.39,169.7,315.39Z"/><path class="cls-2" d="M186.93,312.3l-1.73-14.66a129.1,129.1,0,0,0,47.36-15.2l7.12,12.93A143.92,143.92,0,0,1,186.93,312.3Z"/><path class="cls-3" d="M104.84,300.12a136.13,136.13,0,0,1-44.45-33.24l11.07-9.76a121.38,121.38,0,0,0,39.66,29.64Z"/><path class="cls-4" d="M249.37,287.78,241,275.62a130.53,130.53,0,0,0,34.9-35.49l12.3,8.15A145.24,145.24,0,0,1,249.37,287.78Z"/><path class="cls-5" d="M51.51,255.36a143.82,143.82,0,0,1-22.39-50.67l14.38-3.31a129.07,129.07,0,0,0,20.09,45.5Z"/><path class="cls-6" d="M295.57,235.87l-13-6.9a129.17,129.17,0,0,0,14.38-47.61l14.68,1.48A143.69,143.69,0,0,1,295.57,235.87Z"/><path class="cls-7" d="M28.11,190.51a155.86,155.86,0,0,1-1.35-20.39,153.72,153.72,0,0,1,4-34.81l14.37,3.34a139.87,139.87,0,0,0-2.37,49.92Z"/><path class="cls-8" d="M48.66,126.14l-14-4.71A140.14,140.14,0,0,1,62.22,73.3L73.31,83A125.43,125.43,0,0,0,48.66,126.14Z"/><path class="cls-9" d="M80.78,73.81l-10-10.87a139.27,139.27,0,0,1,47.58-28.47l5,13.89A124.67,124.67,0,0,0,80.78,73.81Z"/><path class="cls-9" d="M135.8,44.56l-3.67-14.3A178.62,178.62,0,0,1,169.41,25h.29a148.73,148.73,0,0,1,17.56,1L185.5,40.64a131.62,131.62,0,0,0-15.65-.94A163.94,163.94,0,0,0,135.8,44.56Z"/><path class="cls-10" d="M312.59,170.6l-14.76-.14v-.32a129.69,129.69,0,0,0-9-48.94l13.73-5.4a144.45,144.45,0,0,1,10,54.48Z"/><path class="cls-11" d="M285.26,109.55A130.22,130.22,0,0,0,254.14,70.7l9.55-11.24a144.9,144.9,0,0,1,34.63,43.22Z"/><path class="cls-11" d="M243.84,62.8a129.13,129.13,0,0,0-45.56-20l3.22-14.4a143.85,143.85,0,0,1,50.74,22.22Z"/></svg>