<?xml version="1.0" encoding="utf-8"?>
<!-- Generator: Adobe Illustrator 23.0.6, SVG Export Plug-In . SVG Version: 6.00 Build 0)  -->
<svg version="1.1" id="Calque_1" xmlns="http://www.w3.org/2000/svg" xmlns:xlink="http://www.w3.org/1999/xlink" x="0px" y="0px"
	 viewBox="0 0 2000 2000" style="enable-background:new 0 0 2000 2000;" xml:space="preserve">
<style type="text/css">
	.st0{fill:#e12b00;}
</style>
<g>
	<path class="st0" d="M964.5,969.6c33.9,0,65.4,0,96.9,0c14.8,0,22,11.3,15.4,24.4c-16.7,33.6-33.4,67.2-50.5,100.6
		c-7.4,14.4-17.3,23.6-36.2,23.1c-55.1-1.3-110.3-0.4-165.4-0.5c-12.2,0-19.8-10.7-14.5-21.2c34-68.3,68.2-136.4,102.4-204.6
		c0.5-1,1.5-1.8,2.8-3.3c18.7,18.7,37.5,37.2,55.8,56.1c1.7,1.7,1.4,6.4,0.6,9.3C970.2,958.4,967.6,962.9,964.5,969.6z
		 M903.8,1088.8c11.1,0,19.8,0.3,28.6-0.2c2.7-0.1,6.6-1.7,7.7-3.8c14.4-27.9,28.5-55.9,43.6-85.9c-11.1,0-20.2-0.3-29.2,0.2
		c-2.6,0.2-6.1,2.4-7.3,4.6C932.9,1031.3,919,1059,903.8,1088.8z"/>
	<path class="st0" d="M659.2,1088.3c4.8,0.2,7.6,0,10.3,0.5c17.3,3.3,29-2.7,34.2-20.2c2.1-7.1,6.9-9.3,14.5-9.1
		c26.2,0.5,52.5,0.2,81,0.2c-8.1,15.5-14.5,29.7-22.7,42.7c-6.8,10.9-16.8,15.6-31.1,15.3c-55.1-1-110.3-0.4-165.4-0.4
		c-13.3,0-20.2-11-14.2-23.1c16.8-34,33.5-68.1,50.9-101.8c7.6-14.8,18.3-23.8,37.5-23.4c53.9,1.3,107.9,0.4,161.8,0.5
		c14.8,0,22,11.2,15.7,24.4c-7.5,15.9-15.6,31.5-22.7,47.6c-2.9,6.6-6.9,8.4-13.8,8.3c-34.8-0.3-69.5,0.2-104.3-0.4
		c-9-0.1-13.8,2.8-17.3,10.8C669.7,1069.3,664.6,1077.9,659.2,1088.3z M695.3,1019.4c38.2,1.8,32.7,4.6,41.1-19.2
		C706.7,994.9,702.8,996.7,695.3,1019.4z"/>
	<path class="st0" d="M1148.9,1088.8c4.6,0,6.6-0.3,8.5,0c18.6,3.6,31.2-2.6,37.2-21.5c1-3.3,6.6-7.2,10.2-7.3
		c27.1-0.6,54.3-0.3,84-0.3c-11,19.9-16.8,40.9-34.3,54.8c-2.5,2-6.5,2.7-9.9,2.7c-58.7,0.2-117.5,0.2-176.2,0.1
		c-11.7,0-18.6-11.4-13.3-22.2c17.2-34.7,34.1-69.6,52-103.9c7.2-13.7,17.3-22.7,35.8-22.2c54.3,1.3,108.7,0.5,163,0.5
		c14.7,0,21.7,11.2,15.4,24.7c-7.3,15.5-15.1,30.8-22.1,46.5c-3,6.8-6.9,9.2-14.5,9.2c-35.2-0.4-70.3,0-105.5-0.4
		c-7.4-0.1-11.7,2-14.8,8.9C1160.2,1068.1,1154.9,1077.4,1148.9,1088.8z M1185,1019.5c38.6,1.7,32.9,4.3,41.5-19.3
		C1195.8,994.9,1193.3,996,1185,1019.5z"/>
	<path class="st0" d="M1586.6,1010.1c1.6-4.5,2.5-7.3,3.5-10.3c-32.7-3.6-33.2-3.4-41.8,18.4c3.6,0.3,6.9,0.8,10.2,0.8
		c30.4,0.1,60.7,0,91.1,0.1c12.4,0,17.8,8.6,12.3,19.7c-11.9,23.9-23.9,47.9-36.6,71.5c-1.9,3.5-7.7,6.8-11.7,6.8
		c-57.5,0.4-115.1,0.3-172.6,0.3c-12.1,0-21.2-16.6-17.8-27.9c7-23.7,21.3-32,45.8-29c18.8,2.3,38,0.5,58.7,0.5
		c-4.5,9.9-8.3,18-12,26.3c28.4,5.7,36-0.2,49.9-38.9c-24.3,0-48,0-71.8,0c-8,0-16,0.1-24,0c-14-0.2-21-11.4-14.9-23.6
		c7.9-15.7,15.3-31.7,23.8-47c2-3.6,7.4-7.7,11.3-7.7c67.1-0.4,134.3-0.3,201.4-0.2c1.1,0,2.3,0.4,5.6,1.1
		c-6.8,12.7-13.1,24.9-19.9,36.8c-1,1.7-4.8,2.5-7.3,2.6C1642.5,1010.2,1615.4,1010.1,1586.6,1010.1z"/>
	<path class="st0" d="M474.6,1034.2c6.3-12.9,11.7-23.9,18-36.6c-10.8,0-19.9-0.8-28.7,0.4c-3.6,0.5-7.8,4.8-9.6,8.4
		c-17.3,33.7-34.5,67.6-51.1,101.6c-3.5,7.2-7.5,9.7-15.5,9.5c-25.9-0.6-51.9-0.2-79.5-0.2c5.5-11,10.5-20.8,15.5-30.7
		c18.3-36.4,36.4-72.8,55.1-109c2.1-4,7.7-8.8,11.7-8.8c67.1-0.5,134.2-0.4,201.3-0.3c1.5,0,2.9,0.4,5.7,0.9
		c-10.3,20.7-20,40.7-30.3,60.4c-1.1,2.2-4.9,4.2-7.5,4.2C532.2,1034.3,504.7,1034.2,474.6,1034.2z"/>
	<path class="st0" d="M1406.4,887.3c19.3,19.5,37.4,37.4,55,55.9c2.1,2.2,2.8,8.2,1.3,11c-25.7,52.3-51.8,104.4-78.1,156.4
		c-1.4,2.7-4.8,6.3-7.3,6.4c-28.2,0.5-56.4,0.3-86.7,0.3C1329.5,1040.1,1367.5,964.7,1406.4,887.3z"/>
</g>
</svg>
