<?xml version="1.0" encoding="utf-8"?>
<!-- Generator: Adobe Illustrator 23.0.6, SVG Export Plug-In . SVG Version: 6.00 Build 0)  -->
<svg version="1.1" id="Calque_1" xmlns="http://www.w3.org/2000/svg" xmlns:xlink="http://www.w3.org/1999/xlink" x="0px" y="0px"
	 viewBox="0 0 2000 2000" style="enable-background:new 0 0 2000 2000;" xml:space="preserve">
<g>
	<path d="M205.1,680.7c1.1,0.5,1.8-0.2,2.5-0.9c3.3-3.2,6.7-6.4,10-9.6c57.6-55.7,115.2-111.4,172.8-167.2
		c6-5.8,12.7-10.8,19.6-15.3c25.5-16.8,53.2-28.5,82.9-35.4c20.5-4.8,41.3-6.7,62.3-6.6c48,0.1,96,0,144,0
		c54.6,0,109.1,0.1,163.7,0.1c52.9,0.1,105.9,0.1,158.8,0.2c53,0.1,105.9,0.1,158.9,0.2c25.3,0,50.6,0.1,75.8,0.1
		c10.3,0,20.4,1.6,30.2,4.8c19.2,6.3,36.7,15.7,51.7,29.4c10.7,9.7,19,21.1,24,34.8c4.7,13.1,5.7,26.5,3.6,40.2
		c-2.7,18.2-9.2,34.9-20,49.8c-2.4,3.4-5.1,6.6-7.9,9.7c-10.7,12.1-21.5,24.1-32.2,36.2c-44.4,50.4-88.7,100.9-133.1,151.4
		c-1.4,1.6-2.8,3-4.7,4c-19.9,10.1-33.8,26-44,45.4c-8.7,16.5-13.5,34.1-14,52.8c-0.1,4.5-0.6,8.9-0.1,13.4
		c1.5,14,5.6,27.2,11.8,39.8c5.3,10.7,12.3,20.2,20.7,28.6c17.9,17.9,35.8,35.6,53.7,53.5c23,23,45.9,46,68.8,68.9
		c26.8,26.8,53.5,53.7,80.3,80.5c26.8,26.8,53.5,53.7,80.3,80.5c26.8,26.8,53.5,53.7,80.3,80.6c27,27.1,54,54.2,81,81.2
		c10.6,10.6,21.3,21.3,31.8,32c3.5,3.5,7.2,6.8,11.2,9.8c22.5,17.1,47,30.9,73,42c25.8,11.1,52.6,19,80.2,23.8
		c2.8,0.5,5.7,0.8,8.5,1.3c1.1,0.2,2.1,0.6,3.2,0.9c0,4.2,0,8.3,0,12.5c-12.5,0-25,0-37.4,0c-1.3-0.9-2.8-0.7-4.2-0.7
		c-6.9-0.1-13.8-0.1-20.6-0.2c-18.2-0.1-36.5-0.2-54.7-0.3c-41.1-0.3-82.2-0.5-123.3-0.8c-4.2,0-8.3-0.2-12.5-0.1
		c-10.3,0.2-20.4-1.1-30.5-3.2c-50-10.4-92.6-34.3-128-71c-8.6-8.8-17.4-17.4-26.1-26.2c-41.2-41.2-82.3-82.4-123.5-123.6
		c-26.3-26.4-52.7-52.8-79-79.1c-26.6-26.6-53.1-53.2-79.7-79.8c-26.2-26.3-52.5-52.5-78.7-78.8c-26.7-26.7-53.4-53.4-80-80.1
		c-9.7-9.7-19.3-19.6-29.2-29.2c-9.4-9.2-16.5-19.9-21.9-31.8c-6-13.3-10.2-27.2-12.1-41.8c-1.8-13.6-1.2-27.1,2.7-40.4
		c5.2-17.3,15.4-31.1,29.8-41.9c8.1-6.1,16.9-10.9,26.3-14.7c6.4-2.6,13.2-3.9,20.1-4.3c10.2-0.5,20.5-0.9,30.7-0.9
		c42.6-0.1,85.1-0.1,127.7-0.1c21,0,41.9,0,62.9-0.1c1.4,0,2.9,0,4.5,0c0.8-0.8,1.8-1.7,2.6-2.6c11.2-13,18.4-28,21.7-44.8
		c1.7-8.7,2.5-17.4,1.7-26.3c-0.8-9.6-2.7-19-5.6-28.2c-6.4-19.9-16.9-37.2-32.1-51.5c-15.3-14.5-33.3-23.5-54-27.2
		c-7.3-1.3-14.6-1.9-22-1.9c-11.7,0-23.3,0-35,0c-34.4,0-68.8-0.1-103.2-0.1c-26.6,0-53.1-0.1-79.7-0.2c-27.2-0.1-54.4-0.1-81.6-0.2
		c-26.6-0.1-53.1-0.1-79.7-0.1c-54.1-0.1-108.1-0.1-162.2-0.2c-26.2,0-52.5,0-78.7-0.1c-17.3,0-34.6,0.1-51.8-0.1
		c-9-0.1-17.9,0.9-26.7,2.4c-32.1,5.6-62.9,15.6-92.4,29.5c-20.7,9.8-40.3,21.5-58.7,35.2c-1.3,0.9-2.6,1.9-4,2.9
		c-1.9-1.1-3.1-2.9-4.5-4.3c-1.8-1.8-3.5-3.8-5.3-5.6c-0.4-0.4-1.1-0.3-1.7-0.5C205.1,681.4,205.1,681,205.1,680.7z"/>
</g>
</svg>
