<svg id="Calque_1" data-name="Calque 1" xmlns="http://www.w3.org/2000/svg" viewBox="0 0 340 340"><defs><style>.cls-1{fill:#ff5512;opacity:0.3;}.cls-2{fill:#ff3600;}.cls-3{fill:none;stroke:#e12b00;stroke-miterlimit:10;}.cls-4{fill:#e12b00;}</style></defs><path class="cls-1" d="M173.15,294.7l-.41-15,1,0,.56,15Zm-13.72-.65-1.13-.12L159.91,279l1,.11Zm28.41-.61-2.17-14.88,1-.15L189,293.26ZM145,291.91l-1.11-.23L146.93,277l1,.2Zm57.31-1.48-3.93-14.51,1-.27,4.07,14.48Zm-71.52-2.13L129.7,288l4.6-14.31,1,.3Zm85.52-2.57-5.63-13.94.94-.39,5.75,13.9ZM117,283.12l-1-.47L122.18,269l.92.41Zm112.65-3.72-7.25-13.18.9-.5,7.34,13.13Zm-125.76-3.07-1-.6,7.86-12.82.85.51Zm138.25-4.8-8.75-12.23.81-.58,8.87,12.13ZM91.66,267.94l-.9-.72,9.42-11.72.78.62Zm161.94-5.69-10.13-11.12.74-.68,10.23,11Zm-173-4.19-.8-.82L90.64,246.8l.7.72Zm183.28-6.37-11.36-9.85.66-.78,11.44,9.77Zm-193-4.84-.68-.9,12-9,.61.81Zm202-6.87-12.46-8.43.57-.84L273.51,239ZM62.71,234.54l-.56-1,13.08-7.43.5.88Zm217.71-7.24-13.37-6.9.47-.9,13.41,6.79Zm-224.32-6-.45-1.05,13.88-5.79.39.93Zm230.3-7.54-14.09-5.25.35-1,14.13,5.15ZM51.09,207.47l-.31-1.08,14.45-4.16.29,1Zm239.65-7.76-14.61-3.57.23-1L291,198.59Zm-243-6.56-.2-1.13,14.83-2.48.17,1Zm245.63-8-14.93-1.81.12-1L293.49,184ZM46,178.54l-.07-1.14,15-.81.06,1Zm248.27-8.1h-15v-1.27l15-.14ZM60.89,164.56l-15-.73.06-1.14,15,.86Zm217.57-7.34-.12-1,14.92-1.89.14,1.13ZM62.24,151.6l-14.85-2.4.19-1.13L62.4,150.6Zm213.94-7.15-.24-1,14.59-3.66.27,1.11ZM65,138.88l-14.48-4.06.31-1.09L65.3,137.9ZM272.4,132l-.36-.94,14-5.36.41,1.07ZM69.23,126.58l-13.92-5.7.44-1.06,13.87,5.83Zm197.94-6.41-.47-.91,13.31-7,.52,1ZM74.85,114.89l-13.13-7.32.56-1L75.35,114Zm185.7-5.9-.56-.83,12.38-8.53c.22.32.44.63.65,1ZM81.84,104,69.71,95.11l.69-.92,12,9Zm170.83-5.33-.66-.75L263.3,88l.76.87ZM90.12,94.09,79.22,83.73l.8-.83L90.81,93.37Zm153.5-4.73-.73-.67,10-11.2.86.78Zm-144-4L90.1,73.66l.89-.72,9.38,11.76Zm134-4.15-.83-.59,8.68-12.28.92.66ZM110.11,77.84l-8-12.77,1-.61L111,77.32Zm112.48-3.6-.88-.48,7.16-13.23,1,.55ZM121.5,71.7l-6.32-13.64c.34-.16.7-.33,1-.48l6.18,13.71Zm89.4-3-.94-.37,5.54-14,1.05.42ZM133.58,67,128.9,52.66l1.08-.35,4.57,14.33Zm65-2.45-1-.27,3.84-14.54,1.1.3Zm-52.41-1L143,48.85l1.13-.24,3,14.73Zm39.71-1.72-1-.14L187,46.79l1.14.17Zm-26.74-.38-1.73-14.94,1.15-.12,1.57,15ZM173,60.69l-1,0,.3-15c.38,0,.77,0,1.15,0Z"/><path class="cls-1" d="M170.07,276A105.88,105.88,0,1,1,275.94,170.16,106,106,0,0,1,170.07,276Zm0-210A104.14,104.14,0,1,0,274.2,170.16,104.25,104.25,0,0,0,170.07,66Z"/><path class="cls-2" d="M170.07,326c-85.9,0-155.79-69.89-155.79-155.79S84.17,14.38,170.07,14.38,325.85,84.27,325.85,170.16,256,326,170.07,326Zm0-309c-84.49,0-153.23,68.74-153.23,153.22S85.58,323.39,170.07,323.39s153.22-68.74,153.22-153.23S254.56,16.94,170.07,16.94Z"/><circle class="cls-3" cx="169.94" cy="170.05" r="166.76" transform="translate(-70.47 169.97) rotate(-45)"/><polygon class="cls-2" points="12.88 164.45 3.17 158.84 3.17 170.05 12.88 164.45"/><polygon class="cls-2" points="326.99 164.45 336.7 158.84 336.7 170.05 326.99 164.45"/><polygon class="cls-2" points="169.94 13.22 175.54 3.51 164.33 3.51 169.94 13.22"/><polygon class="cls-2" points="169.94 327.33 175.54 337.04 164.33 337.04 169.94 327.33"/><polygon class="cls-2" points="58.88 59.22 55.98 48.39 48.05 56.32 58.88 59.22"/><polygon class="cls-2" points="280.99 281.33 291.82 284.23 283.89 292.16 280.99 281.33"/><polygon class="cls-2" points="280.99 59.22 291.82 56.32 283.89 48.39 280.99 59.22"/><polygon class="cls-2" points="58.88 281.33 55.98 292.16 48.05 284.23 58.88 281.33"/><rect class="cls-3" x="101.56" y="152.4" width="136.75" height="30.82"/><path class="cls-4" d="M127,175.12v2.07H115.23v-18.8l2.28,0v16.71Z"/><path class="cls-4" d="M144.11,167.79c0,4.8-2.15,9.66-7.12,9.66s-7.12-4.86-7.12-9.66,2.15-9.67,7.12-9.67S144.11,163,144.11,167.79Zm-2.29,0c0-4.35-1.74-7.6-4.83-7.6s-4.84,3.25-4.84,7.6,1.75,7.6,4.84,7.6S141.82,172.14,141.82,167.79Z"/><path class="cls-4" d="M156.46,171.52h-6.17l-1.89,5.67H146l6.55-18.8h1.69l6.53,18.8h-2.42Zm-.67-2-2.42-7.33L151,169.48Z"/><path class="cls-4" d="M176,167.79c0,5-2,9.4-7.55,9.4h-5v-18.8h5C174.08,158.39,176,162.76,176,167.79Zm-2.29,0c0-3.74-1-7.34-5.34-7.34h-2.61v14.67h2.61C172.71,175.12,173.73,171.52,173.73,167.79Z"/><path class="cls-4" d="M187.3,160.45v14.67h4.48v2.07H180.5v-2.07H185V160.45H180.5v-2.06h11.28v2.06Z"/><path class="cls-4" d="M208.73,158.39v18.8h-1.82l-8.41-14.4.11,14.4h-2.29v-18.8h1.83l8.41,14.39-.11-14.39Z"/><path class="cls-4" d="M220,168.43h5.7v8.76H224l-.24-2.53a4.65,4.65,0,0,1-4.4,2.79c-5,0-7.39-4.4-7.39-9.66,0-5.11,2.23-9.67,7.39-9.67a6.45,6.45,0,0,1,6.36,4.89l-2,.85c-.65-1.63-1.64-3.67-4.35-3.67-3.15,0-5.11,2.65-5.11,7.6s1.94,7.57,5.11,7.6c2.36,0,4.35-1.59,4.35-4.95v0l-3.74.08Z"/></svg>